<svg width="68" height="25" viewBox="0 0 68 25" fill="none" xmlns="http://www.w3.org/2000/svg">
<path d="M21.276 11.5399C21.624 11.0839 22.098 10.6999 22.698 10.3879C23.298 10.0759 23.976 9.91994 24.732 9.91994C25.596 9.91994 26.382 10.1359 27.09 10.5679C27.81 10.9879 28.374 11.5819 28.782 12.3499C29.19 13.1179 29.394 13.9999 29.394 14.9959C29.394 15.9919 29.19 16.8859 28.782 17.6779C28.374 18.4579 27.81 19.0699 27.09 19.5139C26.382 19.9459 25.596 20.1619 24.732 20.1619C23.976 20.1619 23.304 20.0119 22.716 19.7119C22.128 19.3999 21.648 19.0159 21.276 18.5599V24.7159H19.224V10.0819H21.276V11.5399ZM27.306 14.9959C27.306 14.3119 27.162 13.7239 26.874 13.2319C26.598 12.7279 26.226 12.3499 25.758 12.0979C25.302 11.8339 24.81 11.7019 24.282 11.7019C23.766 11.7019 23.274 11.8339 22.806 12.0979C22.35 12.3619 21.978 12.7459 21.69 13.2499C21.414 13.7539 21.276 14.3479 21.276 15.0319C21.276 15.7159 21.414 16.3159 21.69 16.8319C21.978 17.3359 22.35 17.7199 22.806 17.9839C23.274 18.2479 23.766 18.3799 24.282 18.3799C24.81 18.3799 25.302 18.2479 25.758 17.9839C26.226 17.7079 26.598 17.3119 26.874 16.7959C27.162 16.2799 27.306 15.6799 27.306 14.9959ZM33.4752 11.5219C33.7752 11.0179 34.1712 10.6279 34.6632 10.3519C35.1672 10.0639 35.7612 9.91994 36.4452 9.91994V12.0439H35.9232C35.1192 12.0439 34.5072 12.2479 34.0872 12.6559C33.6792 13.0639 33.4752 13.7719 33.4752 14.7799V19.9999H31.4232V10.0819H33.4752V11.5219ZM37.6474 14.9959C37.6474 13.9999 37.8514 13.1179 38.2594 12.3499C38.6794 11.5819 39.2434 10.9879 39.9514 10.5679C40.6714 10.1359 41.4634 9.91994 42.3274 9.91994C43.1074 9.91994 43.7854 10.0759 44.3614 10.3879C44.9494 10.6879 45.4174 11.0659 45.7654 11.5219V10.0819H47.8354V19.9999H45.7654V18.5239C45.4174 18.9919 44.9434 19.3819 44.3434 19.6939C43.7434 20.0059 43.0594 20.1619 42.2914 20.1619C41.4394 20.1619 40.6594 19.9459 39.9514 19.5139C39.2434 19.0699 38.6794 18.4579 38.2594 17.6779C37.8514 16.8859 37.6474 15.9919 37.6474 14.9959ZM45.7654 15.0319C45.7654 14.3479 45.6214 13.7539 45.3334 13.2499C45.0574 12.7459 44.6914 12.3619 44.2354 12.0979C43.7794 11.8339 43.2874 11.7019 42.7594 11.7019C42.2314 11.7019 41.7394 11.8339 41.2834 12.0979C40.8274 12.3499 40.4554 12.7279 40.1674 13.2319C39.8914 13.7239 39.7534 14.3119 39.7534 14.9959C39.7534 15.6799 39.8914 16.2799 40.1674 16.7959C40.4554 17.3119 40.8274 17.7079 41.2834 17.9839C41.7514 18.2479 42.2434 18.3799 42.7594 18.3799C43.2874 18.3799 43.7794 18.2479 44.2354 17.9839C44.6914 17.7199 45.0574 17.3359 45.3334 16.8319C45.6214 16.3159 45.7654 15.7159 45.7654 15.0319ZM51.5747 8.76794C51.2027 8.76794 50.8907 8.64194 50.6387 8.38994C50.3867 8.13794 50.2607 7.82594 50.2607 7.45394C50.2607 7.08194 50.3867 6.76994 50.6387 6.51794C50.8907 6.26594 51.2027 6.13994 51.5747 6.13994C51.9347 6.13994 52.2407 6.26594 52.4927 6.51794C52.7447 6.76994 52.8707 7.08194 52.8707 7.45394C52.8707 7.82594 52.7447 8.13794 52.4927 8.38994C52.2407 8.64194 51.9347 8.76794 51.5747 8.76794ZM52.5827 10.0819V19.9999H50.5307V10.0819H52.5827ZM54.5928 14.9959C54.5928 13.9999 54.7968 13.1179 55.2048 12.3499C55.6248 11.5819 56.1888 10.9879 56.8968 10.5679C57.6168 10.1359 58.4088 9.91994 59.2728 9.91994C60.0528 9.91994 60.7308 10.0759 61.3068 10.3879C61.8948 10.6879 62.3628 11.0659 62.7108 11.5219V10.0819H64.7808V19.9999H62.7108V18.5239C62.3628 18.9919 61.8888 19.3819 61.2888 19.6939C60.6888 20.0059 60.0048 20.1619 59.2368 20.1619C58.3848 20.1619 57.6048 19.9459 56.8968 19.5139C56.1888 19.0699 55.6248 18.4579 55.2048 17.6779C54.7968 16.8859 54.5928 15.9919 54.5928 14.9959ZM62.7108 15.0319C62.7108 14.3479 62.5668 13.7539 62.2788 13.2499C62.0028 12.7459 61.6368 12.3619 61.1808 12.0979C60.7248 11.8339 60.2328 11.7019 59.7048 11.7019C59.1768 11.7019 58.6848 11.8339 58.2288 12.0979C57.7728 12.3499 57.4008 12.7279 57.1128 13.2319C56.8368 13.7239 56.6988 14.3119 56.6988 14.9959C56.6988 15.6799 56.8368 16.2799 57.1128 16.7959C57.4008 17.3119 57.7728 17.7079 58.2288 17.9839C58.6968 18.2479 59.1888 18.3799 59.7048 18.3799C60.2328 18.3799 60.7248 18.2479 61.1808 17.9839C61.6368 17.7199 62.0028 17.3359 62.2788 16.8319C62.5668 16.3159 62.7108 15.7159 62.7108 15.0319Z" fill="#47585B"/>
<circle cx="4" cy="14.9999" r="4" fill="#FFBA08"/>
</svg>
