<svg width="93" height="24" viewBox="0 0 93 24" fill="none" xmlns="http://www.w3.org/2000/svg">
<path d="M18.1728 15.032C18.1728 14.012 18.3768 13.118 18.7848 12.35C19.2048 11.57 19.7808 10.97 20.5128 10.55C21.2448 10.13 22.0848 9.92 23.0328 9.92C24.2328 9.92 25.2228 10.208 26.0028 10.784C26.7948 11.348 27.3288 12.158 27.6048 13.214H25.3908C25.2108 12.722 24.9228 12.338 24.5268 12.062C24.1308 11.786 23.6328 11.648 23.0328 11.648C22.1928 11.648 21.5208 11.948 21.0168 12.548C20.5248 13.136 20.2788 13.964 20.2788 15.032C20.2788 16.1 20.5248 16.934 21.0168 17.534C21.5208 18.134 22.1928 18.434 23.0328 18.434C24.2208 18.434 25.0068 17.912 25.3908 16.868H27.6048C27.3168 17.876 26.7768 18.68 25.9848 19.28C25.1928 19.868 24.2088 20.162 23.0328 20.162C22.0848 20.162 21.2448 19.952 20.5128 19.532C19.7808 19.1 19.2048 18.5 18.7848 17.732C18.3768 16.952 18.1728 16.052 18.1728 15.032ZM31.7018 6.68V20H29.6498V6.68H31.7018ZM33.7119 14.996C33.7119 14 33.9159 13.118 34.3239 12.35C34.7439 11.582 35.3079 10.988 36.0159 10.568C36.7359 10.136 37.5279 9.92 38.3919 9.92C39.1719 9.92 39.8499 10.076 40.4259 10.388C41.0139 10.688 41.4819 11.066 41.8299 11.522V10.082H43.8999V20H41.8299V18.524C41.4819 18.992 41.0079 19.382 40.4079 19.694C39.8079 20.006 39.1239 20.162 38.3559 20.162C37.5039 20.162 36.7239 19.946 36.0159 19.514C35.3079 19.07 34.7439 18.458 34.3239 17.678C33.9159 16.886 33.7119 15.992 33.7119 14.996ZM41.8299 15.032C41.8299 14.348 41.6859 13.754 41.3979 13.25C41.1219 12.746 40.7559 12.362 40.2999 12.098C39.8439 11.834 39.3519 11.702 38.8239 11.702C38.2959 11.702 37.8039 11.834 37.3479 12.098C36.8919 12.35 36.5199 12.728 36.2319 13.232C35.9559 13.724 35.8179 14.312 35.8179 14.996C35.8179 15.68 35.9559 16.28 36.2319 16.796C36.5199 17.312 36.8919 17.708 37.3479 17.984C37.8159 18.248 38.3079 18.38 38.8239 18.38C39.3519 18.38 39.8439 18.248 40.2999 17.984C40.7559 17.72 41.1219 17.336 41.3979 16.832C41.6859 16.316 41.8299 15.716 41.8299 15.032ZM41.0019 7.418L37.0239 9.38V7.868L41.0019 5.672V7.418ZM50.1951 20.162C49.4151 20.162 48.7131 20.024 48.0891 19.748C47.4771 19.46 46.9911 19.076 46.6311 18.596C46.2711 18.104 46.0791 17.558 46.0551 16.958H48.1791C48.2151 17.378 48.4131 17.732 48.7731 18.02C49.1451 18.296 49.6071 18.434 50.1591 18.434C50.7351 18.434 51.1791 18.326 51.4911 18.11C51.8151 17.882 51.9771 17.594 51.9771 17.246C51.9771 16.874 51.7971 16.598 51.4371 16.418C51.0891 16.238 50.5311 16.04 49.7631 15.824C49.0191 15.62 48.4131 15.422 47.9451 15.23C47.4771 15.038 47.0691 14.744 46.7211 14.348C46.3851 13.952 46.2171 13.43 46.2171 12.782C46.2171 12.254 46.3731 11.774 46.6851 11.342C46.9971 10.898 47.4411 10.55 48.0171 10.298C48.6051 10.046 49.2771 9.92 50.0331 9.92C51.1611 9.92 52.0671 10.208 52.7511 10.784C53.4471 11.348 53.8191 12.122 53.8671 13.106H51.8151C51.7791 12.662 51.5991 12.308 51.2751 12.044C50.9511 11.78 50.5131 11.648 49.9611 11.648C49.4211 11.648 49.0071 11.75 48.7191 11.954C48.4311 12.158 48.2871 12.428 48.2871 12.764C48.2871 13.028 48.3831 13.25 48.5751 13.43C48.7671 13.61 49.0011 13.754 49.2771 13.862C49.5531 13.958 49.9611 14.084 50.5011 14.24C51.2211 14.432 51.8091 14.63 52.2651 14.834C52.7331 15.026 53.1351 15.314 53.4711 15.698C53.8071 16.082 53.9811 16.592 53.9931 17.228C53.9931 17.792 53.8371 18.296 53.5251 18.74C53.2131 19.184 52.7691 19.532 52.1931 19.784C51.6291 20.036 50.9631 20.162 50.1951 20.162ZM59.8104 20.162C59.0304 20.162 58.3284 20.024 57.7044 19.748C57.0924 19.46 56.6064 19.076 56.2464 18.596C55.8864 18.104 55.6944 17.558 55.6704 16.958H57.7944C57.8304 17.378 58.0284 17.732 58.3884 18.02C58.7604 18.296 59.2224 18.434 59.7744 18.434C60.3504 18.434 60.7944 18.326 61.1064 18.11C61.4304 17.882 61.5924 17.594 61.5924 17.246C61.5924 16.874 61.4124 16.598 61.0524 16.418C60.7044 16.238 60.1464 16.04 59.3784 15.824C58.6344 15.62 58.0284 15.422 57.5604 15.23C57.0924 15.038 56.6844 14.744 56.3364 14.348C56.0004 13.952 55.8324 13.43 55.8324 12.782C55.8324 12.254 55.9884 11.774 56.3004 11.342C56.6124 10.898 57.0564 10.55 57.6324 10.298C58.2204 10.046 58.8924 9.92 59.6484 9.92C60.7764 9.92 61.6824 10.208 62.3664 10.784C63.0624 11.348 63.4344 12.122 63.4824 13.106H61.4304C61.3944 12.662 61.2144 12.308 60.8904 12.044C60.5664 11.78 60.1284 11.648 59.5764 11.648C59.0364 11.648 58.6224 11.75 58.3344 11.954C58.0464 12.158 57.9024 12.428 57.9024 12.764C57.9024 13.028 57.9984 13.25 58.1904 13.43C58.3824 13.61 58.6164 13.754 58.8924 13.862C59.1684 13.958 59.5764 14.084 60.1164 14.24C60.8364 14.432 61.4244 14.63 61.8804 14.834C62.3484 15.026 62.7504 15.314 63.0864 15.698C63.4224 16.082 63.5964 16.592 63.6084 17.228C63.6084 17.792 63.4524 18.296 63.1404 18.74C62.8284 19.184 62.3844 19.532 61.8084 19.784C61.2444 20.036 60.5784 20.162 59.8104 20.162ZM66.8696 8.768C66.4976 8.768 66.1856 8.642 65.9336 8.39C65.6816 8.138 65.5556 7.826 65.5556 7.454C65.5556 7.082 65.6816 6.77 65.9336 6.518C66.1856 6.266 66.4976 6.14 66.8696 6.14C67.2296 6.14 67.5356 6.266 67.7876 6.518C68.0396 6.77 68.1656 7.082 68.1656 7.454C68.1656 7.826 68.0396 8.138 67.7876 8.39C67.5356 8.642 67.2296 8.768 66.8696 8.768ZM67.8776 10.082V20H65.8256V10.082H67.8776ZM69.8877 15.032C69.8877 14.012 70.0917 13.118 70.4997 12.35C70.9197 11.57 71.4957 10.97 72.2277 10.55C72.9597 10.13 73.7997 9.92 74.7477 9.92C75.9477 9.92 76.9377 10.208 77.7177 10.784C78.5097 11.348 79.0437 12.158 79.3197 13.214H77.1057C76.9257 12.722 76.6377 12.338 76.2417 12.062C75.8457 11.786 75.3477 11.648 74.7477 11.648C73.9077 11.648 73.2357 11.948 72.7317 12.548C72.2397 13.136 71.9937 13.964 71.9937 15.032C71.9937 16.1 72.2397 16.934 72.7317 17.534C73.2357 18.134 73.9077 18.434 74.7477 18.434C75.9357 18.434 76.7217 17.912 77.1057 16.868H79.3197C79.0317 17.876 78.4917 18.68 77.6997 19.28C76.9077 19.868 75.9237 20.162 74.7477 20.162C73.7997 20.162 72.9597 19.952 72.2277 19.532C71.4957 19.1 70.9197 18.5 70.4997 17.732C70.0917 16.952 69.8877 16.052 69.8877 15.032ZM85.6666 20.162C84.7306 20.162 83.8846 19.952 83.1286 19.532C82.3726 19.1 81.7786 18.5 81.3466 17.732C80.9146 16.952 80.6986 16.052 80.6986 15.032C80.6986 14.024 80.9206 13.13 81.3646 12.35C81.8086 11.57 82.4146 10.97 83.1826 10.55C83.9506 10.13 84.8086 9.92 85.7566 9.92C86.7046 9.92 87.5626 10.13 88.3306 10.55C89.0986 10.97 89.7046 11.57 90.1486 12.35C90.5926 13.13 90.8146 14.024 90.8146 15.032C90.8146 16.04 90.5866 16.934 90.1306 17.714C89.6746 18.494 89.0506 19.1 88.2586 19.532C87.4786 19.952 86.6146 20.162 85.6666 20.162ZM85.6666 18.38C86.1946 18.38 86.6866 18.254 87.1426 18.002C87.6106 17.75 87.9886 17.372 88.2766 16.868C88.5646 16.364 88.7086 15.752 88.7086 15.032C88.7086 14.312 88.5706 13.706 88.2946 13.214C88.0186 12.71 87.6526 12.332 87.1966 12.08C86.7406 11.828 86.2486 11.702 85.7206 11.702C85.1926 11.702 84.7006 11.828 84.2446 12.08C83.8006 12.332 83.4466 12.71 83.1826 13.214C82.9186 13.706 82.7866 14.312 82.7866 15.032C82.7866 16.1 83.0566 16.928 83.5966 17.516C84.1486 18.092 84.8386 18.38 85.6666 18.38Z" fill="#47585B"/>
<circle cx="4" cy="15" r="4" fill="#FFBA08"/>
</svg>
