<svg width="103" height="24" viewBox="0 0 103 24" fill="none" xmlns="http://www.w3.org/2000/svg">
<path d="M31.0728 9.92C31.8528 9.92 32.5488 10.082 33.1608 10.406C33.7848 10.73 34.2708 11.21 34.6188 11.846C34.9788 12.482 35.1588 13.25 35.1588 14.15V20H33.1248V14.456C33.1248 13.568 32.9028 12.89 32.4588 12.422C32.0148 11.942 31.4088 11.702 30.6408 11.702C29.8728 11.702 29.2608 11.942 28.8048 12.422C28.3608 12.89 28.1388 13.568 28.1388 14.456V20H26.1048V14.456C26.1048 13.568 25.8828 12.89 25.4388 12.422C24.9948 11.942 24.3888 11.702 23.6208 11.702C22.8528 11.702 22.2408 11.942 21.7848 12.422C21.3408 12.89 21.1188 13.568 21.1188 14.456V20H19.0668V10.082H21.1188V11.216C21.4548 10.808 21.8808 10.49 22.3968 10.262C22.9128 10.034 23.4648 9.92 24.0528 9.92C24.8448 9.92 25.5528 10.088 26.1768 10.424C26.8008 10.76 27.2808 11.246 27.6168 11.882C27.9168 11.282 28.3848 10.808 29.0208 10.46C29.6568 10.1 30.3408 9.92 31.0728 9.92ZM42.0719 20.162C41.1359 20.162 40.2899 19.952 39.5339 19.532C38.7779 19.1 38.1839 18.5 37.7519 17.732C37.3199 16.952 37.1039 16.052 37.1039 15.032C37.1039 14.024 37.3259 13.13 37.7699 12.35C38.2139 11.57 38.8199 10.97 39.5879 10.55C40.3559 10.13 41.2139 9.92 42.1619 9.92C43.1099 9.92 43.9679 10.13 44.7359 10.55C45.5039 10.97 46.1099 11.57 46.5539 12.35C46.9979 13.13 47.2199 14.024 47.2199 15.032C47.2199 16.04 46.9919 16.934 46.5359 17.714C46.0799 18.494 45.4559 19.1 44.6639 19.532C43.8839 19.952 43.0199 20.162 42.0719 20.162ZM42.0719 18.38C42.5999 18.38 43.0919 18.254 43.5479 18.002C44.0159 17.75 44.3939 17.372 44.6819 16.868C44.9699 16.364 45.1139 15.752 45.1139 15.032C45.1139 14.312 44.9759 13.706 44.6999 13.214C44.4239 12.71 44.0579 12.332 43.6019 12.08C43.1459 11.828 42.6539 11.702 42.1259 11.702C41.5979 11.702 41.1059 11.828 40.6499 12.08C40.2059 12.332 39.8519 12.71 39.5879 13.214C39.3239 13.706 39.1919 14.312 39.1919 15.032C39.1919 16.1 39.4619 16.928 40.0019 17.516C40.5539 18.092 41.2439 18.38 42.0719 18.38ZM48.5644 14.996C48.5644 14 48.7684 13.118 49.1764 12.35C49.5964 11.582 50.1604 10.988 50.8684 10.568C51.5884 10.136 52.3864 9.92 53.2624 9.92C53.9104 9.92 54.5464 10.064 55.1704 10.352C55.8064 10.628 56.3104 11 56.6824 11.468V6.68H58.7524V20H56.6824V18.506C56.3464 18.986 55.8784 19.382 55.2784 19.694C54.6904 20.006 54.0124 20.162 53.2444 20.162C52.3804 20.162 51.5884 19.946 50.8684 19.514C50.1604 19.07 49.5964 18.458 49.1764 17.678C48.7684 16.886 48.5644 15.992 48.5644 14.996ZM56.6824 15.032C56.6824 14.348 56.5384 13.754 56.2504 13.25C55.9744 12.746 55.6084 12.362 55.1524 12.098C54.6964 11.834 54.2044 11.702 53.6764 11.702C53.1484 11.702 52.6564 11.834 52.2004 12.098C51.7444 12.35 51.3724 12.728 51.0844 13.232C50.8084 13.724 50.6704 14.312 50.6704 14.996C50.6704 15.68 50.8084 16.28 51.0844 16.796C51.3724 17.312 51.7444 17.708 52.2004 17.984C52.6684 18.248 53.1604 18.38 53.6764 18.38C54.2044 18.38 54.6964 18.248 55.1524 17.984C55.6084 17.72 55.9744 17.336 56.2504 16.832C56.5384 16.316 56.6824 15.716 56.6824 15.032ZM70.5377 14.798C70.5377 15.17 70.5137 15.506 70.4657 15.806H62.8877C62.9477 16.598 63.2417 17.234 63.7697 17.714C64.2977 18.194 64.9457 18.434 65.7137 18.434C66.8177 18.434 67.5977 17.972 68.0537 17.048H70.2677C69.9677 17.96 69.4217 18.71 68.6297 19.298C67.8497 19.874 66.8777 20.162 65.7137 20.162C64.7657 20.162 63.9137 19.952 63.1577 19.532C62.4137 19.1 61.8257 18.5 61.3937 17.732C60.9737 16.952 60.7637 16.052 60.7637 15.032C60.7637 14.012 60.9677 13.118 61.3757 12.35C61.7957 11.57 62.3777 10.97 63.1217 10.55C63.8777 10.13 64.7417 9.92 65.7137 9.92C66.6497 9.92 67.4837 10.124 68.2157 10.532C68.9477 10.94 69.5177 11.516 69.9257 12.26C70.3337 12.992 70.5377 13.838 70.5377 14.798ZM68.3957 14.15C68.3837 13.394 68.1137 12.788 67.5857 12.332C67.0577 11.876 66.4037 11.648 65.6237 11.648C64.9157 11.648 64.3097 11.876 63.8057 12.332C63.3017 12.776 63.0017 13.382 62.9057 14.15H68.3957ZM74.609 11.522C74.909 11.018 75.305 10.628 75.797 10.352C76.301 10.064 76.895 9.92 77.579 9.92V12.044H77.057C76.253 12.044 75.641 12.248 75.221 12.656C74.813 13.064 74.609 13.772 74.609 14.78V20H72.557V10.082H74.609V11.522ZM84.4692 9.92C85.2492 9.92 85.9452 10.082 86.5572 10.406C87.1812 10.73 87.6672 11.21 88.0152 11.846C88.3632 12.482 88.5372 13.25 88.5372 14.15V20H86.5032V14.456C86.5032 13.568 86.2812 12.89 85.8372 12.422C85.3932 11.942 84.7872 11.702 84.0192 11.702C83.2512 11.702 82.6392 11.942 82.1832 12.422C81.7392 12.89 81.5172 13.568 81.5172 14.456V20H79.4652V10.082H81.5172V11.216C81.8532 10.808 82.2792 10.49 82.7952 10.262C83.3232 10.034 83.8812 9.92 84.4692 9.92ZM95.4567 20.162C94.5207 20.162 93.6747 19.952 92.9187 19.532C92.1627 19.1 91.5687 18.5 91.1367 17.732C90.7047 16.952 90.4887 16.052 90.4887 15.032C90.4887 14.024 90.7107 13.13 91.1547 12.35C91.5987 11.57 92.2047 10.97 92.9727 10.55C93.7407 10.13 94.5987 9.92 95.5467 9.92C96.4947 9.92 97.3527 10.13 98.1207 10.55C98.8887 10.97 99.4947 11.57 99.9387 12.35C100.383 13.13 100.605 14.024 100.605 15.032C100.605 16.04 100.377 16.934 99.9207 17.714C99.4647 18.494 98.8407 19.1 98.0487 19.532C97.2687 19.952 96.4047 20.162 95.4567 20.162ZM95.4567 18.38C95.9847 18.38 96.4767 18.254 96.9327 18.002C97.4007 17.75 97.7787 17.372 98.0667 16.868C98.3547 16.364 98.4987 15.752 98.4987 15.032C98.4987 14.312 98.3607 13.706 98.0847 13.214C97.8087 12.71 97.4427 12.332 96.9867 12.08C96.5307 11.828 96.0387 11.702 95.5107 11.702C94.9827 11.702 94.4907 11.828 94.0347 12.08C93.5907 12.332 93.2367 12.71 92.9727 13.214C92.7087 13.706 92.5767 14.312 92.5767 15.032C92.5767 16.1 92.8467 16.928 93.3867 17.516C93.9387 18.092 94.6287 18.38 95.4567 18.38Z" fill="#47585B"/>
<circle cx="4" cy="15" r="4" fill="#FFBA08"/>
</svg>
