<svg width="96" height="24" viewBox="0 0 96 24" fill="none" xmlns="http://www.w3.org/2000/svg">
<path d="M29.4029 14.798C29.4029 15.17 29.3789 15.506 29.3309 15.806H21.7529C21.8129 16.598 22.1069 17.234 22.6349 17.714C23.1629 18.194 23.8109 18.434 24.5789 18.434C25.6829 18.434 26.4629 17.972 26.9189 17.048H29.1329C28.8329 17.96 28.2869 18.71 27.4949 19.298C26.7149 19.874 25.7429 20.162 24.5789 20.162C23.6309 20.162 22.7789 19.952 22.0229 19.532C21.2789 19.1 20.6909 18.5 20.2589 17.732C19.8389 16.952 19.6289 16.052 19.6289 15.032C19.6289 14.012 19.8329 13.118 20.2409 12.35C20.6609 11.57 21.2429 10.97 21.9869 10.55C22.7429 10.13 23.6069 9.92 24.5789 9.92C25.5149 9.92 26.3489 10.124 27.0809 10.532C27.8129 10.94 28.3829 11.516 28.7909 12.26C29.1989 12.992 29.4029 13.838 29.4029 14.798ZM27.2609 14.15C27.2489 13.394 26.9789 12.788 26.4509 12.332C25.9229 11.876 25.2689 11.648 24.4889 11.648C23.7809 11.648 23.1749 11.876 22.6709 12.332C22.1669 12.776 21.8669 13.382 21.7709 14.15H27.2609ZM48.104 9.92C48.884 9.92 49.58 10.082 50.192 10.406C50.816 10.73 51.302 11.21 51.65 11.846C52.01 12.482 52.19 13.25 52.19 14.15V20H50.156V14.456C50.156 13.568 49.934 12.89 49.49 12.422C49.046 11.942 48.44 11.702 47.672 11.702C46.904 11.702 46.292 11.942 45.836 12.422C45.392 12.89 45.17 13.568 45.17 14.456V20H43.136V14.456C43.136 13.568 42.914 12.89 42.47 12.422C42.026 11.942 41.42 11.702 40.652 11.702C39.884 11.702 39.272 11.942 38.816 12.422C38.372 12.89 38.15 13.568 38.15 14.456V20H36.098V10.082H38.15V11.216C38.486 10.808 38.912 10.49 39.428 10.262C39.944 10.034 40.496 9.92 41.084 9.92C41.876 9.92 42.584 10.088 43.208 10.424C43.832 10.76 44.312 11.246 44.648 11.882C44.948 11.282 45.416 10.808 46.052 10.46C46.688 10.1 47.372 9.92 48.104 9.92ZM54.1172 14.996C54.1172 14 54.3212 13.118 54.7292 12.35C55.1492 11.582 55.7132 10.988 56.4212 10.568C57.1412 10.136 57.9332 9.92 58.7972 9.92C59.5772 9.92 60.2552 10.076 60.8312 10.388C61.4192 10.688 61.8872 11.066 62.2352 11.522V10.082H64.3052V20H62.2352V18.524C61.8872 18.992 61.4132 19.382 60.8132 19.694C60.2132 20.006 59.5292 20.162 58.7612 20.162C57.9092 20.162 57.1292 19.946 56.4212 19.514C55.7132 19.07 55.1492 18.458 54.7292 17.678C54.3212 16.886 54.1172 15.992 54.1172 14.996ZM62.2352 15.032C62.2352 14.348 62.0912 13.754 61.8032 13.25C61.5272 12.746 61.1612 12.362 60.7052 12.098C60.2492 11.834 59.7572 11.702 59.2292 11.702C58.7012 11.702 58.2092 11.834 57.7532 12.098C57.2972 12.35 56.9252 12.728 56.6372 13.232C56.3612 13.724 56.2232 14.312 56.2232 14.996C56.2232 15.68 56.3612 16.28 56.6372 16.796C56.9252 17.312 57.2972 17.708 57.7532 17.984C58.2212 18.248 58.7132 18.38 59.2292 18.38C59.7572 18.38 60.2492 18.248 60.7052 17.984C61.1612 17.72 61.5272 17.336 61.8032 16.832C62.0912 16.316 62.2352 15.716 62.2352 15.032ZM68.0444 8.768C67.6724 8.768 67.3604 8.642 67.1084 8.39C66.8564 8.138 66.7304 7.826 66.7304 7.454C66.7304 7.082 66.8564 6.77 67.1084 6.518C67.3604 6.266 67.6724 6.14 68.0444 6.14C68.4044 6.14 68.7104 6.266 68.9624 6.518C69.2144 6.77 69.3404 7.082 69.3404 7.454C69.3404 7.826 69.2144 8.138 68.9624 8.39C68.7104 8.642 68.4044 8.768 68.0444 8.768ZM69.0524 10.082V20H67.0004V10.082H69.0524ZM75.3465 20.162C74.5665 20.162 73.8645 20.024 73.2405 19.748C72.6285 19.46 72.1425 19.076 71.7825 18.596C71.4225 18.104 71.2305 17.558 71.2065 16.958H73.3305C73.3665 17.378 73.5645 17.732 73.9245 18.02C74.2965 18.296 74.7585 18.434 75.3105 18.434C75.8865 18.434 76.3305 18.326 76.6425 18.11C76.9665 17.882 77.1285 17.594 77.1285 17.246C77.1285 16.874 76.9485 16.598 76.5885 16.418C76.2405 16.238 75.6825 16.04 74.9145 15.824C74.1705 15.62 73.5645 15.422 73.0965 15.23C72.6285 15.038 72.2205 14.744 71.8725 14.348C71.5365 13.952 71.3685 13.43 71.3685 12.782C71.3685 12.254 71.5245 11.774 71.8365 11.342C72.1485 10.898 72.5925 10.55 73.1685 10.298C73.7565 10.046 74.4285 9.92 75.1845 9.92C76.3125 9.92 77.2185 10.208 77.9025 10.784C78.5985 11.348 78.9705 12.122 79.0185 13.106H76.9665C76.9305 12.662 76.7505 12.308 76.4265 12.044C76.1025 11.78 75.6645 11.648 75.1125 11.648C74.5725 11.648 74.1585 11.75 73.8705 11.954C73.5825 12.158 73.4385 12.428 73.4385 12.764C73.4385 13.028 73.5345 13.25 73.7265 13.43C73.9185 13.61 74.1525 13.754 74.4285 13.862C74.7045 13.958 75.1125 14.084 75.6525 14.24C76.3725 14.432 76.9605 14.63 77.4165 14.834C77.8845 15.026 78.2865 15.314 78.6225 15.698C78.9585 16.082 79.1325 16.592 79.1445 17.228C79.1445 17.792 78.9885 18.296 78.6765 18.74C78.3645 19.184 77.9205 19.532 77.3445 19.784C76.7805 20.036 76.1145 20.162 75.3465 20.162ZM82.1897 20.126C81.8177 20.126 81.5057 20 81.2537 19.748C81.0017 19.496 80.8757 19.184 80.8757 18.812C80.8757 18.44 81.0017 18.128 81.2537 17.876C81.5057 17.624 81.8177 17.498 82.1897 17.498C82.5497 17.498 82.8557 17.624 83.1077 17.876C83.3597 18.128 83.4857 18.44 83.4857 18.812C83.4857 19.184 83.3597 19.496 83.1077 19.748C82.8557 20 82.5497 20.126 82.1897 20.126ZM86.5315 20.126C86.1595 20.126 85.8475 20 85.5955 19.748C85.3435 19.496 85.2175 19.184 85.2175 18.812C85.2175 18.44 85.3435 18.128 85.5955 17.876C85.8475 17.624 86.1595 17.498 86.5315 17.498C86.8915 17.498 87.1975 17.624 87.4495 17.876C87.7015 18.128 87.8275 18.44 87.8275 18.812C87.8275 19.184 87.7015 19.496 87.4495 19.748C87.1975 20 86.8915 20.126 86.5315 20.126ZM90.8733 20.126C90.5013 20.126 90.1893 20 89.9373 19.748C89.6853 19.496 89.5593 19.184 89.5593 18.812C89.5593 18.44 89.6853 18.128 89.9373 17.876C90.1893 17.624 90.5013 17.498 90.8733 17.498C91.2333 17.498 91.5393 17.624 91.7913 17.876C92.0433 18.128 92.1693 18.44 92.1693 18.812C92.1693 19.184 92.0433 19.496 91.7913 19.748C91.5393 20 91.2333 20.126 90.8733 20.126Z" fill="#47585B"/>
<circle cx="4" cy="16" r="4" fill="#FFBA08"/>
</svg>
