<svg width="136" height="21" viewBox="0 0 136 21" fill="none" xmlns="http://www.w3.org/2000/svg">
<path d="M22.9125 18.1639L25.7205 10.0819H27.8985L24.1185 19.9999H21.6705L17.9085 10.0819H20.1045L22.9125 18.1639ZM30.4936 8.76794C30.1216 8.76794 29.8096 8.64194 29.5576 8.38994C29.3056 8.13794 29.1796 7.82594 29.1796 7.45394C29.1796 7.08194 29.3056 6.76994 29.5576 6.51794C29.8096 6.26594 30.1216 6.13994 30.4936 6.13994C30.8536 6.13994 31.1596 6.26594 31.4116 6.51794C31.6636 6.76994 31.7896 7.08194 31.7896 7.45394C31.7896 7.82594 31.6636 8.13794 31.4116 8.38994C31.1596 8.64194 30.8536 8.76794 30.4936 8.76794ZM31.5016 10.0819V19.9999H29.4496V10.0819H31.5016ZM33.5117 14.9959C33.5117 13.9999 33.7157 13.1179 34.1237 12.3499C34.5437 11.5819 35.1077 10.9879 35.8157 10.5679C36.5357 10.1359 37.3337 9.91994 38.2097 9.91994C38.8577 9.91994 39.4937 10.0639 40.1177 10.3519C40.7537 10.6279 41.2577 10.9999 41.6297 11.4679V6.67994H43.6997V19.9999H41.6297V18.5059C41.2937 18.9859 40.8257 19.3819 40.2257 19.6939C39.6377 20.0059 38.9597 20.1619 38.1917 20.1619C37.3277 20.1619 36.5357 19.9459 35.8157 19.5139C35.1077 19.0699 34.5437 18.4579 34.1237 17.6779C33.7157 16.8859 33.5117 15.9919 33.5117 14.9959ZM41.6297 15.0319C41.6297 14.3479 41.4857 13.7539 41.1977 13.2499C40.9217 12.7459 40.5557 12.3619 40.0997 12.0979C39.6437 11.8339 39.1517 11.7019 38.6237 11.7019C38.0957 11.7019 37.6037 11.8339 37.1477 12.0979C36.6917 12.3499 36.3197 12.7279 36.0317 13.2319C35.7557 13.7239 35.6177 14.3119 35.6177 14.9959C35.6177 15.6799 35.7557 16.2799 36.0317 16.7959C36.3197 17.3119 36.6917 17.7079 37.1477 17.9839C37.6157 18.2479 38.1077 18.3799 38.6237 18.3799C39.1517 18.3799 39.6437 18.2479 40.0997 17.9839C40.5557 17.7199 40.9217 17.3359 41.1977 16.8319C41.4857 16.3159 41.6297 15.7159 41.6297 15.0319ZM45.7109 14.9959C45.7109 13.9999 45.9149 13.1179 46.3229 12.3499C46.7429 11.5819 47.3069 10.9879 48.0149 10.5679C48.7349 10.1359 49.5269 9.91994 50.3909 9.91994C51.1709 9.91994 51.8489 10.0759 52.4249 10.3879C53.0129 10.6879 53.4809 11.0659 53.8289 11.5219V10.0819H55.8989V19.9999H53.8289V18.5239C53.4809 18.9919 53.0069 19.3819 52.4069 19.6939C51.8069 20.0059 51.1229 20.1619 50.3549 20.1619C49.5029 20.1619 48.7229 19.9459 48.0149 19.5139C47.3069 19.0699 46.7429 18.4579 46.3229 17.6779C45.9149 16.8859 45.7109 15.9919 45.7109 14.9959ZM53.8289 15.0319C53.8289 14.3479 53.6849 13.7539 53.3969 13.2499C53.1209 12.7459 52.7549 12.3619 52.2989 12.0979C51.8429 11.8339 51.3509 11.7019 50.8229 11.7019C50.2949 11.7019 49.8029 11.8339 49.3469 12.0979C48.8909 12.3499 48.5189 12.7279 48.2309 13.2319C47.9549 13.7239 47.8169 14.3119 47.8169 14.9959C47.8169 15.6799 47.9549 16.2799 48.2309 16.7959C48.5189 17.3119 48.8909 17.7079 49.3469 17.9839C49.8149 18.2479 50.3069 18.3799 50.8229 18.3799C51.3509 18.3799 51.8429 18.2479 52.2989 17.9839C52.7549 17.7199 53.1209 17.3359 53.3969 16.8319C53.6849 16.3159 53.8289 15.7159 53.8289 15.0319ZM68.2739 9.91994C69.0539 9.91994 69.7499 10.0819 70.3619 10.4059C70.9859 10.7299 71.4719 11.2099 71.8199 11.8459C72.1679 12.4819 72.3419 13.2499 72.3419 14.1499V19.9999H70.3079V14.4559C70.3079 13.5679 70.0859 12.8899 69.6419 12.4219C69.1979 11.9419 68.5919 11.7019 67.8239 11.7019C67.0559 11.7019 66.4439 11.9419 65.9879 12.4219C65.5439 12.8899 65.3219 13.5679 65.3219 14.4559V19.9999H63.2699V10.0819H65.3219V11.2159C65.6579 10.8079 66.0839 10.4899 66.5999 10.2619C67.1279 10.0339 67.6859 9.91994 68.2739 9.91994ZM79.2614 20.1619C78.3254 20.1619 77.4794 19.9519 76.7234 19.5319C75.9674 19.0999 75.3734 18.4999 74.9414 17.7319C74.5094 16.9519 74.2934 16.0519 74.2934 15.0319C74.2934 14.0239 74.5154 13.1299 74.9594 12.3499C75.4034 11.5699 76.0094 10.9699 76.7774 10.5499C77.5454 10.1299 78.4034 9.91994 79.3514 9.91994C80.2994 9.91994 81.1574 10.1299 81.9254 10.5499C82.6934 10.9699 83.2994 11.5699 83.7434 12.3499C84.1874 13.1299 84.4094 14.0239 84.4094 15.0319C84.4094 16.0399 84.1814 16.9339 83.7254 17.7139C83.2694 18.4939 82.6454 19.0999 81.8534 19.5319C81.0734 19.9519 80.2094 20.1619 79.2614 20.1619ZM79.2614 18.3799C79.7894 18.3799 80.2814 18.2539 80.7374 18.0019C81.2054 17.7499 81.5834 17.3719 81.8714 16.8679C82.1594 16.3639 82.3034 15.7519 82.3034 15.0319C82.3034 14.3119 82.1654 13.7059 81.8894 13.2139C81.6134 12.7099 81.2474 12.3319 80.7914 12.0799C80.3354 11.8279 79.8434 11.7019 79.3154 11.7019C78.7874 11.7019 78.2954 11.8279 77.8394 12.0799C77.3954 12.3319 77.0414 12.7099 76.7774 13.2139C76.5134 13.7059 76.3814 14.3119 76.3814 15.0319C76.3814 16.0999 76.6514 16.9279 77.1914 17.5159C77.7434 18.0919 78.4334 18.3799 79.2614 18.3799ZM88.8319 11.7559V17.2459C88.8319 17.6179 88.9159 17.8879 89.0839 18.0559C89.2639 18.2119 89.5639 18.2899 89.9839 18.2899H91.2439V19.9999H89.6239C88.6999 19.9999 87.9919 19.7839 87.4999 19.3519C87.0079 18.9199 86.7619 18.2179 86.7619 17.2459V11.7559H85.5919V10.0819H86.7619V7.61594H88.8319V10.0819H91.2439V11.7559H88.8319ZM102.117 10.0819V19.9999H100.065V18.8299C99.7412 19.2379 99.3152 19.5619 98.7872 19.8019C98.2712 20.0299 97.7192 20.1439 97.1312 20.1439C96.3512 20.1439 95.6492 19.9819 95.0252 19.6579C94.4132 19.3339 93.9272 18.8539 93.5672 18.2179C93.2192 17.5819 93.0452 16.8139 93.0452 15.9139V10.0819H95.0792V15.6079C95.0792 16.4959 95.3012 17.1799 95.7452 17.6599C96.1892 18.1279 96.7952 18.3619 97.5632 18.3619C98.3312 18.3619 98.9372 18.1279 99.3812 17.6599C99.8372 17.1799 100.065 16.4959 100.065 15.6079V10.0819H102.117ZM106.877 11.5219C107.177 11.0179 107.573 10.6279 108.065 10.3519C108.569 10.0639 109.163 9.91994 109.847 9.91994V12.0439H109.325C108.521 12.0439 107.909 12.2479 107.489 12.6559C107.081 13.0639 106.877 13.7719 106.877 14.7799V19.9999H104.825V10.0819H106.877V11.5219ZM116.737 9.91994C117.517 9.91994 118.213 10.0819 118.825 10.4059C119.449 10.7299 119.935 11.2099 120.283 11.8459C120.631 12.4819 120.805 13.2499 120.805 14.1499V19.9999H118.771V14.4559C118.771 13.5679 118.549 12.8899 118.105 12.4219C117.661 11.9419 117.055 11.7019 116.287 11.7019C115.519 11.7019 114.907 11.9419 114.451 12.4219C114.007 12.8899 113.785 13.5679 113.785 14.4559V19.9999H111.733V10.0819H113.785V11.2159C114.121 10.8079 114.547 10.4899 115.063 10.2619C115.591 10.0339 116.149 9.91994 116.737 9.91994ZM122.738 14.9959C122.738 13.9999 122.942 13.1179 123.35 12.3499C123.77 11.5819 124.334 10.9879 125.042 10.5679C125.762 10.1359 126.554 9.91994 127.418 9.91994C128.198 9.91994 128.876 10.0759 129.452 10.3879C130.04 10.6879 130.508 11.0659 130.856 11.5219V10.0819H132.926V19.9999H130.856V18.5239C130.508 18.9919 130.034 19.3819 129.434 19.6939C128.834 20.0059 128.15 20.1619 127.382 20.1619C126.53 20.1619 125.75 19.9459 125.042 19.5139C124.334 19.0699 123.77 18.4579 123.35 17.6779C122.942 16.8859 122.738 15.9919 122.738 14.9959ZM130.856 15.0319C130.856 14.3479 130.712 13.7539 130.424 13.2499C130.148 12.7459 129.782 12.3619 129.326 12.0979C128.87 11.8339 128.378 11.7019 127.85 11.7019C127.322 11.7019 126.83 11.8339 126.374 12.0979C125.918 12.3499 125.546 12.7279 125.258 13.2319C124.982 13.7239 124.844 14.3119 124.844 14.9959C124.844 15.6799 124.982 16.2799 125.258 16.7959C125.546 17.3119 125.918 17.7079 126.374 17.9839C126.842 18.2479 127.334 18.3799 127.85 18.3799C128.378 18.3799 128.87 18.2479 129.326 17.9839C129.782 17.7199 130.148 17.3359 130.424 16.8319C130.712 16.3159 130.856 15.7159 130.856 15.0319Z" fill="#47585B"/>
<circle cx="4" cy="14.9999" r="4" fill="#FFBA08"/>
</svg>
