<svg width="532" height="81" viewBox="0 0 532 81" fill="none" xmlns="http://www.w3.org/2000/svg">
<path d="M156.68 0.979998L147.284 26H142.532L133.1 0.979998H137.492L144.908 21.788L152.36 0.979998H156.68ZM158.744 15.992C158.744 14 159.152 12.236 159.968 10.7C160.808 9.164 161.936 7.976 163.352 7.136C164.792 6.272 166.376 5.84 168.104 5.84C169.664 5.84 171.02 6.152 172.172 6.776C173.348 7.376 174.284 8.132 174.98 9.044V6.164H179.12V26H174.98V23.048C174.284 23.984 173.336 24.764 172.136 25.388C170.936 26.012 169.568 26.324 168.032 26.324C166.328 26.324 164.768 25.892 163.352 25.028C161.936 24.14 160.808 22.916 159.968 21.356C159.152 19.772 158.744 17.984 158.744 15.992ZM174.98 16.064C174.98 14.696 174.692 13.508 174.116 12.5C173.564 11.492 172.832 10.724 171.92 10.196C171.008 9.668 170.024 9.404 168.968 9.404C167.912 9.404 166.928 9.668 166.016 10.196C165.104 10.7 164.36 11.456 163.784 12.464C163.232 13.448 162.956 14.624 162.956 15.992C162.956 17.36 163.232 18.56 163.784 19.592C164.36 20.624 165.104 21.416 166.016 21.968C166.952 22.496 167.936 22.76 168.968 22.76C170.024 22.76 171.008 22.496 171.92 21.968C172.832 21.44 173.564 20.672 174.116 19.664C174.692 18.632 174.98 17.432 174.98 16.064ZM208.523 5.84C210.083 5.84 211.475 6.164 212.699 6.812C213.947 7.46 214.919 8.42 215.615 9.692C216.335 10.964 216.695 12.5 216.695 14.3V26H212.627V14.912C212.627 13.136 212.183 11.78 211.295 10.844C210.407 9.884 209.195 9.404 207.659 9.404C206.123 9.404 204.899 9.884 203.987 10.844C203.099 11.78 202.655 13.136 202.655 14.912V26H198.587V14.912C198.587 13.136 198.143 11.78 197.255 10.844C196.367 9.884 195.155 9.404 193.619 9.404C192.083 9.404 190.859 9.884 189.947 10.844C189.059 11.78 188.615 13.136 188.615 14.912V26H184.511V6.164H188.615V8.432C189.287 7.616 190.139 6.98 191.171 6.524C192.203 6.068 193.307 5.84 194.483 5.84C196.067 5.84 197.483 6.176 198.731 6.848C199.979 7.52 200.939 8.492 201.611 9.764C202.211 8.564 203.147 7.616 204.419 6.92C205.691 6.2 207.059 5.84 208.523 5.84ZM230.521 26.324C228.649 26.324 226.957 25.904 225.445 25.064C223.933 24.2 222.745 23 221.881 21.464C221.017 19.904 220.585 18.104 220.585 16.064C220.585 14.048 221.029 12.26 221.917 10.7C222.805 9.14 224.017 7.94 225.553 7.1C227.089 6.26 228.805 5.84 230.701 5.84C232.597 5.84 234.313 6.26 235.849 7.1C237.385 7.94 238.597 9.14 239.485 10.7C240.373 12.26 240.817 14.048 240.817 16.064C240.817 18.08 240.361 19.868 239.449 21.428C238.537 22.988 237.289 24.2 235.705 25.064C234.145 25.904 232.417 26.324 230.521 26.324ZM230.521 22.76C231.577 22.76 232.561 22.508 233.473 22.004C234.409 21.5 235.165 20.744 235.741 19.736C236.317 18.728 236.605 17.504 236.605 16.064C236.605 14.624 236.329 13.412 235.777 12.428C235.225 11.42 234.493 10.664 233.581 10.16C232.669 9.656 231.685 9.404 230.629 9.404C229.573 9.404 228.589 9.656 227.677 10.16C226.789 10.664 226.081 11.42 225.553 12.428C225.025 13.412 224.761 14.624 224.761 16.064C224.761 18.2 225.301 19.856 226.381 21.032C227.485 22.184 228.865 22.76 230.521 22.76ZM252.074 26.324C250.514 26.324 249.11 26.048 247.862 25.496C246.638 24.92 245.666 24.152 244.946 23.192C244.226 22.208 243.842 21.116 243.794 19.916H248.042C248.114 20.756 248.51 21.464 249.23 22.04C249.974 22.592 250.898 22.868 252.002 22.868C253.154 22.868 254.042 22.652 254.666 22.22C255.314 21.764 255.638 21.188 255.638 20.492C255.638 19.748 255.278 19.196 254.558 18.836C253.862 18.476 252.746 18.08 251.21 17.648C249.722 17.24 248.51 16.844 247.574 16.46C246.638 16.076 245.822 15.488 245.126 14.696C244.454 13.904 244.118 12.86 244.118 11.564C244.118 10.508 244.43 9.548 245.054 8.684C245.678 7.796 246.566 7.1 247.718 6.596C248.894 6.092 250.238 5.84 251.75 5.84C254.006 5.84 255.818 6.416 257.186 7.568C258.578 8.696 259.322 10.244 259.418 12.212H255.314C255.242 11.324 254.882 10.616 254.234 10.088C253.586 9.56 252.71 9.296 251.606 9.296C250.526 9.296 249.698 9.5 249.122 9.908C248.546 10.316 248.258 10.856 248.258 11.528C248.258 12.056 248.45 12.5 248.834 12.86C249.218 13.22 249.686 13.508 250.238 13.724C250.79 13.916 251.606 14.168 252.686 14.48C254.126 14.864 255.302 15.26 256.214 15.668C257.15 16.052 257.954 16.628 258.626 17.396C259.298 18.164 259.646 19.184 259.67 20.456C259.67 21.584 259.358 22.592 258.734 23.48C258.11 24.368 257.222 25.064 256.07 25.568C254.942 26.072 253.61 26.324 252.074 26.324ZM283.464 5.84C285.024 5.84 286.416 6.164 287.64 6.812C288.888 7.46 289.86 8.42 290.556 9.692C291.252 10.964 291.6 12.5 291.6 14.3V26H287.532V14.912C287.532 13.136 287.088 11.78 286.2 10.844C285.312 9.884 284.1 9.404 282.564 9.404C281.028 9.404 279.804 9.884 278.892 10.844C278.004 11.78 277.56 13.136 277.56 14.912V26H273.456V6.164H277.56V8.432C278.232 7.616 279.084 6.98 280.116 6.524C281.172 6.068 282.288 5.84 283.464 5.84ZM315.015 15.596C315.015 16.34 314.967 17.012 314.871 17.612H299.715C299.835 19.196 300.423 20.468 301.479 21.428C302.535 22.388 303.831 22.868 305.367 22.868C307.575 22.868 309.135 21.944 310.047 20.096H314.475C313.875 21.92 312.783 23.42 311.199 24.596C309.639 25.748 307.695 26.324 305.367 26.324C303.471 26.324 301.767 25.904 300.255 25.064C298.767 24.2 297.591 23 296.727 21.464C295.887 19.904 295.467 18.104 295.467 16.064C295.467 14.024 295.875 12.236 296.691 10.7C297.531 9.14 298.695 7.94 300.183 7.1C301.695 6.26 303.423 5.84 305.367 5.84C307.239 5.84 308.907 6.248 310.371 7.064C311.835 7.88 312.975 9.032 313.791 10.52C314.607 11.984 315.015 13.676 315.015 15.596ZM310.731 14.3C310.707 12.788 310.167 11.576 309.111 10.664C308.055 9.752 306.747 9.296 305.187 9.296C303.771 9.296 302.559 9.752 301.551 10.664C300.543 11.552 299.943 12.764 299.751 14.3H310.731ZM326.254 26.324C324.694 26.324 323.29 26.048 322.042 25.496C320.818 24.92 319.846 24.152 319.126 23.192C318.406 22.208 318.022 21.116 317.974 19.916H322.222C322.294 20.756 322.69 21.464 323.41 22.04C324.154 22.592 325.078 22.868 326.182 22.868C327.334 22.868 328.222 22.652 328.846 22.22C329.494 21.764 329.818 21.188 329.818 20.492C329.818 19.748 329.458 19.196 328.738 18.836C328.042 18.476 326.926 18.08 325.39 17.648C323.902 17.24 322.69 16.844 321.754 16.46C320.818 16.076 320.002 15.488 319.306 14.696C318.634 13.904 318.298 12.86 318.298 11.564C318.298 10.508 318.61 9.548 319.234 8.684C319.858 7.796 320.746 7.1 321.898 6.596C323.074 6.092 324.418 5.84 325.93 5.84C328.186 5.84 329.998 6.416 331.366 7.568C332.758 8.696 333.502 10.244 333.598 12.212H329.494C329.422 11.324 329.062 10.616 328.414 10.088C327.766 9.56 326.89 9.296 325.786 9.296C324.706 9.296 323.878 9.5 323.302 9.908C322.726 10.316 322.438 10.856 322.438 11.528C322.438 12.056 322.63 12.5 323.014 12.86C323.398 13.22 323.866 13.508 324.418 13.724C324.97 13.916 325.786 14.168 326.866 14.48C328.306 14.864 329.482 15.26 330.394 15.668C331.33 16.052 332.134 16.628 332.806 17.396C333.478 18.164 333.826 19.184 333.85 20.456C333.85 21.584 333.538 22.592 332.914 23.48C332.29 24.368 331.402 25.064 330.25 25.568C329.122 26.072 327.79 26.324 326.254 26.324ZM345.484 26.324C343.924 26.324 342.52 26.048 341.272 25.496C340.048 24.92 339.076 24.152 338.356 23.192C337.636 22.208 337.252 21.116 337.204 19.916H341.452C341.524 20.756 341.92 21.464 342.64 22.04C343.384 22.592 344.308 22.868 345.412 22.868C346.564 22.868 347.452 22.652 348.076 22.22C348.724 21.764 349.048 21.188 349.048 20.492C349.048 19.748 348.688 19.196 347.968 18.836C347.272 18.476 346.156 18.08 344.62 17.648C343.132 17.24 341.92 16.844 340.984 16.46C340.048 16.076 339.232 15.488 338.536 14.696C337.864 13.904 337.528 12.86 337.528 11.564C337.528 10.508 337.84 9.548 338.464 8.684C339.088 7.796 339.976 7.1 341.128 6.596C342.304 6.092 343.648 5.84 345.16 5.84C347.416 5.84 349.228 6.416 350.596 7.568C351.988 8.696 352.732 10.244 352.828 12.212H348.724C348.652 11.324 348.292 10.616 347.644 10.088C346.996 9.56 346.12 9.296 345.016 9.296C343.936 9.296 343.108 9.5 342.532 9.908C341.956 10.316 341.668 10.856 341.668 11.528C341.668 12.056 341.86 12.5 342.244 12.86C342.628 13.22 343.096 13.508 343.648 13.724C344.2 13.916 345.016 14.168 346.096 14.48C347.536 14.864 348.712 15.26 349.624 15.668C350.56 16.052 351.364 16.628 352.036 17.396C352.708 18.164 353.056 19.184 353.08 20.456C353.08 21.584 352.768 22.592 352.144 23.48C351.52 24.368 350.632 25.064 349.48 25.568C348.352 26.072 347.02 26.324 345.484 26.324ZM356.146 15.992C356.146 14 356.554 12.236 357.37 10.7C358.21 9.164 359.338 7.976 360.754 7.136C362.194 6.272 363.778 5.84 365.506 5.84C367.066 5.84 368.422 6.152 369.574 6.776C370.75 7.376 371.686 8.132 372.382 9.044V6.164H376.522V26H372.382V23.048C371.686 23.984 370.738 24.764 369.538 25.388C368.338 26.012 366.97 26.324 365.434 26.324C363.73 26.324 362.17 25.892 360.754 25.028C359.338 24.14 358.21 22.916 357.37 21.356C356.554 19.772 356.146 17.984 356.146 15.992ZM372.382 16.064C372.382 14.696 372.094 13.508 371.518 12.5C370.966 11.492 370.234 10.724 369.322 10.196C368.41 9.668 367.426 9.404 366.37 9.404C365.314 9.404 364.33 9.668 363.418 10.196C362.506 10.7 361.762 11.456 361.186 12.464C360.634 13.448 360.358 14.624 360.358 15.992C360.358 17.36 360.634 18.56 361.186 19.592C361.762 20.624 362.506 21.416 363.418 21.968C364.354 22.496 365.338 22.76 366.37 22.76C367.426 22.76 368.41 22.496 369.322 21.968C370.234 21.44 370.966 20.672 371.518 19.664C372.094 18.632 372.382 17.432 372.382 16.064ZM388.645 0.619998C391.093 0.619998 393.049 1.292 394.513 2.636C396.001 3.98 396.745 5.816 396.745 8.144C396.745 10.568 395.977 12.392 394.441 13.616C392.905 14.84 390.865 15.452 388.321 15.452L388.177 18.296H384.613L384.433 12.644H385.621C387.949 12.644 389.725 12.332 390.949 11.708C392.197 11.084 392.821 9.896 392.821 8.144C392.821 6.872 392.449 5.876 391.705 5.156C390.985 4.436 389.977 4.076 388.681 4.076C387.385 4.076 386.365 4.424 385.621 5.12C384.877 5.816 384.505 6.788 384.505 8.036H380.653C380.653 6.596 380.977 5.312 381.625 4.184C382.273 3.056 383.197 2.18 384.397 1.556C385.621 0.931999 387.037 0.619998 388.645 0.619998ZM386.341 26.252C385.597 26.252 384.973 26 384.469 25.496C383.965 24.992 383.713 24.368 383.713 23.624C383.713 22.88 383.965 22.256 384.469 21.752C384.973 21.248 385.597 20.996 386.341 20.996C387.061 20.996 387.673 21.248 388.177 21.752C388.681 22.256 388.933 22.88 388.933 23.624C388.933 24.368 388.681 24.992 388.177 25.496C387.673 26 387.061 26.252 386.341 26.252ZM5.02861 58.292V65.636H13.6686V68.984H5.02861V76.652H14.7486V80H0.924609V54.944H14.7486V58.292H5.02861ZM29.8115 59.84C31.3715 59.84 32.7635 60.164 33.9875 60.812C35.2355 61.46 36.2075 62.42 36.9035 63.692C37.5995 64.964 37.9475 66.5 37.9475 68.3V80H33.8795V68.912C33.8795 67.136 33.4355 65.78 32.5475 64.844C31.6595 63.884 30.4475 63.404 28.9115 63.404C27.3755 63.404 26.1515 63.884 25.2395 64.844C24.3515 65.78 23.9075 67.136 23.9075 68.912V80H19.8035V60.164H23.9075V62.432C24.5795 61.616 25.4315 60.98 26.4635 60.524C27.5195 60.068 28.6355 59.84 29.8115 59.84ZM47.9704 63.512V74.492C47.9704 75.236 48.1384 75.776 48.4744 76.112C48.8344 76.424 49.4344 76.58 50.2744 76.58H52.7944V80H49.5544C47.7064 80 46.2904 79.568 45.3064 78.704C44.3224 77.84 43.8304 76.436 43.8304 74.492V63.512H41.4904V60.164H43.8304V55.232H47.9704V60.164H52.7944V63.512H47.9704ZM55.209 69.992C55.209 68 55.617 66.236 56.433 64.7C57.273 63.164 58.401 61.976 59.817 61.136C61.257 60.272 62.841 59.84 64.569 59.84C66.129 59.84 67.485 60.152 68.637 60.776C69.813 61.376 70.749 62.132 71.445 63.044V60.164H75.585V80H71.445V77.048C70.749 77.984 69.801 78.764 68.601 79.388C67.401 80.012 66.033 80.324 64.497 80.324C62.793 80.324 61.233 79.892 59.817 79.028C58.401 78.14 57.273 76.916 56.433 75.356C55.617 73.772 55.209 71.984 55.209 69.992ZM71.445 70.064C71.445 68.696 71.157 67.508 70.581 66.5C70.029 65.492 69.297 64.724 68.385 64.196C67.473 63.668 66.489 63.404 65.433 63.404C64.377 63.404 63.393 63.668 62.481 64.196C61.569 64.7 60.825 65.456 60.249 66.464C59.697 67.448 59.421 68.624 59.421 69.992C59.421 71.36 59.697 72.56 60.249 73.592C60.825 74.624 61.569 75.416 62.481 75.968C63.417 76.496 64.401 76.76 65.433 76.76C66.489 76.76 67.473 76.496 68.385 75.968C69.297 75.44 70.029 74.672 70.581 73.664C71.157 72.632 71.445 71.432 71.445 70.064ZM60.213 58.112C60.405 56.72 60.861 55.676 61.581 54.98C62.301 54.26 63.201 53.9 64.281 53.9C64.737 53.9 65.133 53.972 65.469 54.116C65.805 54.26 66.213 54.476 66.693 54.764C67.053 55.004 67.353 55.184 67.593 55.304C67.857 55.424 68.145 55.484 68.457 55.484C68.865 55.484 69.201 55.364 69.465 55.124C69.753 54.86 69.933 54.476 70.005 53.972H72.309C72.117 55.364 71.661 56.42 70.941 57.14C70.221 57.836 69.321 58.184 68.241 58.184C67.785 58.184 67.377 58.112 67.017 57.968C66.657 57.8 66.261 57.572 65.829 57.284C65.397 57.02 65.061 56.84 64.821 56.744C64.605 56.624 64.353 56.564 64.065 56.564C63.657 56.564 63.309 56.696 63.021 56.96C62.757 57.224 62.589 57.608 62.517 58.112H60.213ZM89.5794 80.324C87.7074 80.324 86.0154 79.904 84.5034 79.064C82.9914 78.2 81.8034 77 80.9394 75.464C80.0754 73.904 79.6434 72.104 79.6434 70.064C79.6434 68.048 80.0874 66.26 80.9754 64.7C81.8634 63.14 83.0754 61.94 84.6114 61.1C86.1474 60.26 87.8634 59.84 89.7594 59.84C91.6554 59.84 93.3714 60.26 94.9074 61.1C96.4434 61.94 97.6554 63.14 98.5434 64.7C99.4314 66.26 99.8754 68.048 99.8754 70.064C99.8754 72.08 99.4194 73.868 98.5074 75.428C97.5954 76.988 96.3474 78.2 94.7634 79.064C93.2034 79.904 91.4754 80.324 89.5794 80.324ZM89.5794 76.76C90.6354 76.76 91.6194 76.508 92.5314 76.004C93.4674 75.5 94.2234 74.744 94.7994 73.736C95.3754 72.728 95.6634 71.504 95.6634 70.064C95.6634 68.624 95.3874 67.412 94.8354 66.428C94.2834 65.42 93.5514 64.664 92.6394 64.16C91.7274 63.656 90.7434 63.404 89.6874 63.404C88.6314 63.404 87.6474 63.656 86.7354 64.16C85.8474 64.664 85.1394 65.42 84.6114 66.428C84.0834 67.412 83.8194 68.624 83.8194 70.064C83.8194 72.2 84.3594 73.856 85.4394 75.032C86.5434 76.184 87.9234 76.76 89.5794 76.76ZM131.464 69.596C131.464 70.34 131.416 71.012 131.32 71.612H116.164C116.284 73.196 116.872 74.468 117.928 75.428C118.984 76.388 120.28 76.868 121.816 76.868C124.024 76.868 125.584 75.944 126.496 74.096H130.924C130.324 75.92 129.232 77.42 127.648 78.596C126.088 79.748 124.144 80.324 121.816 80.324C119.92 80.324 118.216 79.904 116.704 79.064C115.216 78.2 114.04 77 113.176 75.464C112.336 73.904 111.916 72.104 111.916 70.064C111.916 68.024 112.324 66.236 113.14 64.7C113.98 63.14 115.144 61.94 116.632 61.1C118.144 60.26 119.872 59.84 121.816 59.84C123.688 59.84 125.356 60.248 126.82 61.064C128.284 61.88 129.424 63.032 130.24 64.52C131.056 65.984 131.464 67.676 131.464 69.596ZM127.18 68.3C127.156 66.788 126.616 65.576 125.56 64.664C124.504 63.752 123.196 63.296 121.636 63.296C120.22 63.296 119.008 63.752 118 64.664C116.992 65.552 116.392 66.764 116.2 68.3H127.18ZM142.703 80.324C141.143 80.324 139.739 80.048 138.491 79.496C137.267 78.92 136.295 78.152 135.575 77.192C134.855 76.208 134.471 75.116 134.423 73.916H138.671C138.743 74.756 139.139 75.464 139.859 76.04C140.603 76.592 141.527 76.868 142.631 76.868C143.783 76.868 144.671 76.652 145.295 76.22C145.943 75.764 146.267 75.188 146.267 74.492C146.267 73.748 145.907 73.196 145.187 72.836C144.491 72.476 143.375 72.08 141.839 71.648C140.351 71.24 139.139 70.844 138.203 70.46C137.267 70.076 136.451 69.488 135.755 68.696C135.083 67.904 134.747 66.86 134.747 65.564C134.747 64.508 135.059 63.548 135.683 62.684C136.307 61.796 137.195 61.1 138.347 60.596C139.523 60.092 140.867 59.84 142.379 59.84C144.635 59.84 146.447 60.416 147.815 61.568C149.207 62.696 149.951 64.244 150.047 66.212H145.943C145.871 65.324 145.511 64.616 144.863 64.088C144.215 63.56 143.339 63.296 142.235 63.296C141.155 63.296 140.327 63.5 139.751 63.908C139.175 64.316 138.887 64.856 138.887 65.528C138.887 66.056 139.079 66.5 139.463 66.86C139.847 67.22 140.315 67.508 140.867 67.724C141.419 67.916 142.235 68.168 143.315 68.48C144.755 68.864 145.931 69.26 146.843 69.668C147.779 70.052 148.583 70.628 149.255 71.396C149.927 72.164 150.275 73.184 150.299 74.456C150.299 75.584 149.987 76.592 149.363 77.48C148.739 78.368 147.851 79.064 146.699 79.568C145.571 80.072 144.239 80.324 142.703 80.324ZM153.365 70.064C153.365 68.024 153.773 66.236 154.589 64.7C155.429 63.14 156.581 61.94 158.045 61.1C159.509 60.26 161.189 59.84 163.085 59.84C165.485 59.84 167.465 60.416 169.025 61.568C170.609 62.696 171.677 64.316 172.229 66.428H167.801C167.441 65.444 166.865 64.676 166.073 64.124C165.281 63.572 164.285 63.296 163.085 63.296C161.405 63.296 160.061 63.896 159.053 65.096C158.069 66.272 157.577 67.928 157.577 70.064C157.577 72.2 158.069 73.868 159.053 75.068C160.061 76.268 161.405 76.868 163.085 76.868C165.461 76.868 167.033 75.824 167.801 73.736H172.229C171.653 75.752 170.573 77.36 168.989 78.56C167.405 79.736 165.437 80.324 163.085 80.324C161.189 80.324 159.509 79.904 158.045 79.064C156.581 78.2 155.429 77 154.589 75.464C153.773 73.904 153.365 72.104 153.365 70.064ZM184.923 80.324C183.051 80.324 181.359 79.904 179.847 79.064C178.335 78.2 177.147 77 176.283 75.464C175.419 73.904 174.987 72.104 174.987 70.064C174.987 68.048 175.431 66.26 176.319 64.7C177.207 63.14 178.419 61.94 179.955 61.1C181.491 60.26 183.207 59.84 185.103 59.84C186.999 59.84 188.715 60.26 190.251 61.1C191.787 61.94 192.999 63.14 193.887 64.7C194.775 66.26 195.219 68.048 195.219 70.064C195.219 72.08 194.763 73.868 193.851 75.428C192.939 76.988 191.691 78.2 190.107 79.064C188.547 79.904 186.819 80.324 184.923 80.324ZM184.923 76.76C185.979 76.76 186.963 76.508 187.875 76.004C188.811 75.5 189.567 74.744 190.143 73.736C190.719 72.728 191.007 71.504 191.007 70.064C191.007 68.624 190.731 67.412 190.179 66.428C189.627 65.42 188.895 64.664 187.983 64.16C187.071 63.656 186.087 63.404 185.031 63.404C183.975 63.404 182.991 63.656 182.079 64.16C181.191 64.664 180.483 65.42 179.955 66.428C179.427 67.412 179.163 68.624 179.163 70.064C179.163 72.2 179.703 73.856 180.783 75.032C181.887 76.184 183.267 76.76 184.923 76.76ZM203.38 53.36V80H199.276V53.36H203.38ZM219.028 59.84C220.54 59.84 221.884 60.164 223.06 60.812C224.26 61.46 225.196 62.42 225.868 63.692C226.564 64.964 226.912 66.5 226.912 68.3V80H222.844V68.912C222.844 67.136 222.4 65.78 221.512 64.844C220.624 63.884 219.412 63.404 217.876 63.404C216.34 63.404 215.116 63.884 214.204 64.844C213.316 65.78 212.872 67.136 212.872 68.912V80H208.768V53.36H212.872V62.468C213.568 61.628 214.444 60.98 215.5 60.524C216.58 60.068 217.756 59.84 219.028 59.84ZM230.779 69.992C230.779 68 231.187 66.236 232.003 64.7C232.843 63.164 233.971 61.976 235.387 61.136C236.827 60.272 238.411 59.84 240.139 59.84C241.699 59.84 243.055 60.152 244.207 60.776C245.383 61.376 246.319 62.132 247.015 63.044V60.164H251.155V80H247.015V77.048C246.319 77.984 245.371 78.764 244.171 79.388C242.971 80.012 241.603 80.324 240.067 80.324C238.363 80.324 236.803 79.892 235.387 79.028C233.971 78.14 232.843 76.916 232.003 75.356C231.187 73.772 230.779 71.984 230.779 69.992ZM247.015 70.064C247.015 68.696 246.727 67.508 246.151 66.5C245.599 65.492 244.867 64.724 243.955 64.196C243.043 63.668 242.059 63.404 241.003 63.404C239.947 63.404 238.963 63.668 238.051 64.196C237.139 64.7 236.395 65.456 235.819 66.464C235.267 67.448 234.991 68.624 234.991 69.992C234.991 71.36 235.267 72.56 235.819 73.592C236.395 74.624 237.139 75.416 238.051 75.968C238.987 76.496 239.971 76.76 241.003 76.76C242.059 76.76 243.043 76.496 243.955 75.968C244.867 75.44 245.599 74.672 246.151 73.664C246.727 72.632 247.015 71.432 247.015 70.064ZM273.097 80.324C271.537 80.324 270.133 80.048 268.885 79.496C267.661 78.92 266.689 78.152 265.969 77.192C265.249 76.208 264.865 75.116 264.817 73.916H269.065C269.137 74.756 269.533 75.464 270.253 76.04C270.997 76.592 271.921 76.868 273.025 76.868C274.177 76.868 275.065 76.652 275.689 76.22C276.337 75.764 276.661 75.188 276.661 74.492C276.661 73.748 276.301 73.196 275.581 72.836C274.885 72.476 273.769 72.08 272.233 71.648C270.745 71.24 269.533 70.844 268.597 70.46C267.661 70.076 266.845 69.488 266.149 68.696C265.477 67.904 265.141 66.86 265.141 65.564C265.141 64.508 265.453 63.548 266.077 62.684C266.701 61.796 267.589 61.1 268.741 60.596C269.917 60.092 271.261 59.84 272.773 59.84C275.029 59.84 276.841 60.416 278.209 61.568C279.601 62.696 280.345 64.244 280.441 66.212H276.337C276.265 65.324 275.905 64.616 275.257 64.088C274.609 63.56 273.733 63.296 272.629 63.296C271.549 63.296 270.721 63.5 270.145 63.908C269.569 64.316 269.281 64.856 269.281 65.528C269.281 66.056 269.473 66.5 269.857 66.86C270.241 67.22 270.709 67.508 271.261 67.724C271.813 67.916 272.629 68.168 273.709 68.48C275.149 68.864 276.325 69.26 277.237 69.668C278.173 70.052 278.977 70.628 279.649 71.396C280.321 72.164 280.669 73.184 280.693 74.456C280.693 75.584 280.381 76.592 279.757 77.48C279.133 78.368 278.245 79.064 277.093 79.568C275.965 80.072 274.633 80.324 273.097 80.324ZM303.308 69.596C303.308 70.34 303.26 71.012 303.164 71.612H288.008C288.128 73.196 288.716 74.468 289.772 75.428C290.828 76.388 292.124 76.868 293.66 76.868C295.868 76.868 297.428 75.944 298.34 74.096H302.768C302.168 75.92 301.076 77.42 299.492 78.596C297.932 79.748 295.988 80.324 293.66 80.324C291.764 80.324 290.06 79.904 288.548 79.064C287.06 78.2 285.884 77 285.02 75.464C284.18 73.904 283.76 72.104 283.76 70.064C283.76 68.024 284.168 66.236 284.984 64.7C285.824 63.14 286.988 61.94 288.476 61.1C289.988 60.26 291.716 59.84 293.66 59.84C295.532 59.84 297.2 60.248 298.664 61.064C300.128 61.88 301.268 63.032 302.084 64.52C302.9 65.984 303.308 67.676 303.308 69.596ZM299.024 68.3C299 66.788 298.46 65.576 297.404 64.664C296.348 63.752 295.04 63.296 293.48 63.296C292.064 63.296 290.852 63.752 289.844 64.664C288.836 65.552 288.236 66.764 288.044 68.3H299.024ZM325.31 60.164V80H321.206V77.66C320.558 78.476 319.706 79.124 318.65 79.604C317.618 80.06 316.514 80.288 315.338 80.288C313.778 80.288 312.374 79.964 311.126 79.316C309.902 78.668 308.93 77.708 308.21 76.436C307.514 75.164 307.166 73.628 307.166 71.828V60.164H311.234V71.216C311.234 72.992 311.678 74.36 312.566 75.32C313.454 76.256 314.666 76.724 316.202 76.724C317.738 76.724 318.95 76.256 319.838 75.32C320.75 74.36 321.206 72.992 321.206 71.216V60.164H325.31ZM338.709 70.064C338.709 68.024 339.117 66.236 339.933 64.7C340.773 63.14 341.925 61.94 343.389 61.1C344.853 60.26 346.533 59.84 348.429 59.84C350.829 59.84 352.809 60.416 354.369 61.568C355.953 62.696 357.021 64.316 357.573 66.428H353.145C352.785 65.444 352.209 64.676 351.417 64.124C350.625 63.572 349.629 63.296 348.429 63.296C346.749 63.296 345.405 63.896 344.397 65.096C343.413 66.272 342.921 67.928 342.921 70.064C342.921 72.2 343.413 73.868 344.397 75.068C345.405 76.268 346.749 76.868 348.429 76.868C350.805 76.868 352.377 75.824 353.145 73.736H357.573C356.997 75.752 355.917 77.36 354.333 78.56C352.749 79.736 350.781 80.324 348.429 80.324C346.533 80.324 344.853 79.904 343.389 79.064C341.925 78.2 340.773 77 339.933 75.464C339.117 73.904 338.709 72.104 338.709 70.064ZM370.267 80.324C368.395 80.324 366.703 79.904 365.191 79.064C363.679 78.2 362.491 77 361.627 75.464C360.763 73.904 360.331 72.104 360.331 70.064C360.331 68.048 360.775 66.26 361.663 64.7C362.551 63.14 363.763 61.94 365.299 61.1C366.835 60.26 368.551 59.84 370.447 59.84C372.343 59.84 374.059 60.26 375.595 61.1C377.131 61.94 378.343 63.14 379.231 64.7C380.119 66.26 380.563 68.048 380.563 70.064C380.563 72.08 380.107 73.868 379.195 75.428C378.283 76.988 377.035 78.2 375.451 79.064C373.891 79.904 372.163 80.324 370.267 80.324ZM370.267 76.76C371.323 76.76 372.307 76.508 373.219 76.004C374.155 75.5 374.911 74.744 375.487 73.736C376.063 72.728 376.351 71.504 376.351 70.064C376.351 68.624 376.075 67.412 375.523 66.428C374.971 65.42 374.239 64.664 373.327 64.16C372.415 63.656 371.431 63.404 370.375 63.404C369.319 63.404 368.335 63.656 367.423 64.16C366.535 64.664 365.827 65.42 365.299 66.428C364.771 67.412 364.507 68.624 364.507 70.064C364.507 72.2 365.047 73.856 366.127 75.032C367.231 76.184 368.611 76.76 370.267 76.76ZM394.628 59.84C396.188 59.84 397.58 60.164 398.804 60.812C400.052 61.46 401.024 62.42 401.72 63.692C402.416 64.964 402.764 66.5 402.764 68.3V80H398.696V68.912C398.696 67.136 398.252 65.78 397.364 64.844C396.476 63.884 395.264 63.404 393.728 63.404C392.192 63.404 390.968 63.884 390.056 64.844C389.168 65.78 388.724 67.136 388.724 68.912V80H384.62V60.164H388.724V62.432C389.396 61.616 390.248 60.98 391.28 60.524C392.336 60.068 393.452 59.84 394.628 59.84ZM412.787 63.512V74.492C412.787 75.236 412.955 75.776 413.291 76.112C413.651 76.424 414.251 76.58 415.091 76.58H417.611V80H414.371C412.523 80 411.107 79.568 410.123 78.704C409.139 77.84 408.647 76.436 408.647 74.492V63.512H406.307V60.164H408.647V55.232H412.787V60.164H417.611V63.512H412.787ZM423.481 57.536C422.737 57.536 422.113 57.284 421.609 56.78C421.105 56.276 420.853 55.652 420.853 54.908C420.853 54.164 421.105 53.54 421.609 53.036C422.113 52.532 422.737 52.28 423.481 52.28C424.201 52.28 424.813 52.532 425.317 53.036C425.821 53.54 426.073 54.164 426.073 54.908C426.073 55.652 425.821 56.276 425.317 56.78C424.813 57.284 424.201 57.536 423.481 57.536ZM425.497 60.164V80H421.393V60.164H425.497ZM440.894 59.84C442.454 59.84 443.846 60.164 445.07 60.812C446.318 61.46 447.29 62.42 447.986 63.692C448.682 64.964 449.03 66.5 449.03 68.3V80H444.962V68.912C444.962 67.136 444.518 65.78 443.63 64.844C442.742 63.884 441.53 63.404 439.994 63.404C438.458 63.404 437.234 63.884 436.322 64.844C435.434 65.78 434.99 67.136 434.99 68.912V80H430.886V60.164H434.99V62.432C435.662 61.616 436.514 60.98 437.546 60.524C438.602 60.068 439.718 59.84 440.894 59.84ZM472.444 69.596C472.444 70.34 472.396 71.012 472.3 71.612H457.144C457.264 73.196 457.852 74.468 458.908 75.428C459.964 76.388 461.26 76.868 462.796 76.868C465.004 76.868 466.564 75.944 467.476 74.096H471.904C471.304 75.92 470.212 77.42 468.628 78.596C467.068 79.748 465.124 80.324 462.796 80.324C460.9 80.324 459.196 79.904 457.684 79.064C456.196 78.2 455.02 77 454.156 75.464C453.316 73.904 452.896 72.104 452.896 70.064C452.896 68.024 453.304 66.236 454.12 64.7C454.96 63.14 456.124 61.94 457.612 61.1C459.124 60.26 460.852 59.84 462.796 59.84C464.668 59.84 466.336 60.248 467.8 61.064C469.264 61.88 470.404 63.032 471.22 64.52C472.036 65.984 472.444 67.676 472.444 69.596ZM468.16 68.3C468.136 66.788 467.596 65.576 466.54 64.664C465.484 63.752 464.176 63.296 462.616 63.296C461.2 63.296 459.988 63.752 458.98 64.664C457.972 65.552 457.372 66.764 457.18 68.3H468.16ZM486.491 59.84C488.051 59.84 489.443 60.164 490.667 60.812C491.915 61.46 492.887 62.42 493.583 63.692C494.279 64.964 494.627 66.5 494.627 68.3V80H490.559V68.912C490.559 67.136 490.115 65.78 489.227 64.844C488.339 63.884 487.127 63.404 485.591 63.404C484.055 63.404 482.831 63.884 481.919 64.844C481.031 65.78 480.587 67.136 480.587 68.912V80H476.483V60.164H480.587V62.432C481.259 61.616 482.111 60.98 483.143 60.524C484.199 60.068 485.315 59.84 486.491 59.84ZM504.65 63.512V74.492C504.65 75.236 504.818 75.776 505.154 76.112C505.514 76.424 506.114 76.58 506.954 76.58H509.474V80H506.234C504.386 80 502.97 79.568 501.986 78.704C501.002 77.84 500.51 76.436 500.51 74.492V63.512H498.17V60.164H500.51V55.232H504.65V60.164H509.474V63.512H504.65ZM531.437 69.596C531.437 70.34 531.389 71.012 531.293 71.612H516.137C516.257 73.196 516.845 74.468 517.901 75.428C518.957 76.388 520.253 76.868 521.789 76.868C523.997 76.868 525.557 75.944 526.469 74.096H530.897C530.297 75.92 529.205 77.42 527.621 78.596C526.061 79.748 524.117 80.324 521.789 80.324C519.893 80.324 518.189 79.904 516.677 79.064C515.189 78.2 514.013 77 513.149 75.464C512.309 73.904 511.889 72.104 511.889 70.064C511.889 68.024 512.297 66.236 513.113 64.7C513.953 63.14 515.117 61.94 516.605 61.1C518.117 60.26 519.845 59.84 521.789 59.84C523.661 59.84 525.329 60.248 526.793 61.064C528.257 61.88 529.397 63.032 530.213 64.52C531.029 65.984 531.437 67.676 531.437 69.596ZM527.153 68.3C527.129 66.788 526.589 65.576 525.533 64.664C524.477 63.752 523.169 63.296 521.609 63.296C520.193 63.296 518.981 63.752 517.973 64.664C516.965 65.552 516.365 66.764 516.173 68.3H527.153Z" fill="#47585B"/>
</svg>
